<?xml version="1.0" encoding="UTF-8" standalone="no"?>
<!DOCTYPE svg PUBLIC "-//W3C//DTD SVG 1.1//EN" "http://www.w3.org/Graphics/SVG/1.1/DTD/svg11.dtd">
<svg width="100%" height="100%" viewBox="0 0 847 680" version="1.1" xmlns="http://www.w3.org/2000/svg" xmlns:xlink="http://www.w3.org/1999/xlink" xml:space="preserve" xmlns:serif="http://www.serif.com/" style="fill-rule:evenodd;clip-rule:evenodd;stroke-linejoin:round;stroke-miterlimit:2;">
    <g transform="matrix(1,0,0,1,-1715.57,-1142.19)">
        <g transform="matrix(1,0,0,1,2435.56,1232.79)">
            <path d="M0,498.249C-0.159,498.254 -0.399,498.205 -0.442,498.275C-0.561,498.472 -0.598,498.718 -0.667,498.945C-0.444,498.866 -0.2,498.819 -0.008,498.691C0.061,498.646 0.001,498.408 0,498.249M-456.598,-59.026C-456.267,-58.901 -455.867,-58.751 -455.467,-58.6C-455.426,-58.831 -455.271,-59.135 -455.364,-59.281C-455.693,-59.798 -456.195,-60.076 -456.841,-60.004C-456.771,-59.72 -456.7,-59.436 -456.598,-59.026M-271.711,412.949C-271.133,413.187 -270.489,413.365 -270.029,412.874C-269.809,412.638 -270.12,412.262 -270.494,412.245C-270.962,412.224 -271.432,412.234 -271.901,412.231C-271.838,412.47 -271.775,412.708 -271.711,412.949M-335.667,420.17C-335.692,419.665 -335.685,418.896 -335.792,418.144C-335.823,417.927 -336.217,417.567 -336.389,417.597C-337.616,417.81 -338.874,418.013 -339.586,419.248C-339.901,419.794 -339.691,421.204 -339.252,421.39C-338.472,421.721 -336.378,421.131 -335.667,420.17M-318.439,400.329C-319.6,397.034 -319.553,396.967 -320.512,396.361C-322.628,395.026 -324.288,392.982 -326.819,392.287C-326.942,392.253 -327.082,392.077 -327.106,391.946C-327.133,391.807 -327.046,391.519 -326.986,391.513C-326.743,391.487 -326.323,391.468 -326.269,391.585C-325.877,392.431 -325.746,393.372 -324.991,394.07C-323.007,395.906 -321.077,397.8 -318.439,400.329M-332.347,418.971C-332.031,419.205 -331.896,419.389 -331.782,419.377C-329.955,419.176 -328.107,419.036 -326.425,418.211C-326.227,418.114 -326.122,417.657 -326.12,417.367C-326.117,416.883 -326.35,416.431 -326.894,416.417C-328.445,416.378 -329.999,416.358 -331.548,416.419C-332,416.437 -332.408,416.808 -332.417,417.35C-332.427,417.94 -332.369,418.531 -332.347,418.971M-355.426,416.326C-355.564,417.074 -355.694,417.672 -355.781,418.276C-355.849,418.742 -355.921,419.22 -355.889,419.685C-355.827,420.557 -355.415,421.148 -354.446,421.19C-353.825,421.216 -353.204,421.295 -352.583,421.3C-352.071,421.303 -352.008,421.414 -352.395,421.741C-352.255,421.47 -352.051,421.211 -351.991,420.923C-351.897,420.468 -351.907,419.991 -351.86,419.525C-351.667,417.558 -351.715,417.429 -353.485,416.738C-354.043,416.52 -354.672,416.48 -355.426,416.326M-342.38,422.132C-342.008,421.527 -342.777,419.44 -343.481,419.291C-344.551,419.066 -345.641,418.939 -346.719,418.755C-348.52,418.447 -348.979,418.807 -349.056,420.612C-349.154,422.903 -348.603,423.476 -346.387,423.246C-345.292,423.132 -344.204,422.916 -343.127,422.683C-342.851,422.624 -342.627,422.322 -342.38,422.132M97.553,198.09C96.405,198.477 96.536,199.632 96.331,200.434C95.222,204.769 94.257,209.141 93.243,213.5C97.25,206.063 98.285,202.098 97.553,198.09M-321.968,419.115C-321.653,419.345 -321.434,419.579 -321.163,419.693C-318.986,420.614 -316.812,421.544 -314.605,422.386C-314.238,422.527 -313.581,422.404 -313.291,422.143C-312.774,421.681 -312.917,421.014 -313.272,420.449C-314.555,418.405 -315.82,416.407 -318.834,417.28C-319.532,417.482 -320.384,417.1 -321.169,417.068C-321.631,417.05 -322.132,417.219 -322.15,417.798C-322.165,418.254 -322.028,418.716 -321.968,419.115M-309.571,403.28C-310.064,403.493 -310.239,403.515 -310.327,403.614C-311.704,405.158 -312.945,407.13 -315.356,404.967C-315.468,404.867 -316.216,405.257 -316.462,405.578C-316.824,406.048 -317.389,406.711 -316.893,407.275C-315.054,409.365 -312.489,410.348 -310.008,411.368C-309.411,411.613 -308.464,411.166 -307.73,410.895C-305.793,410.18 -303.896,409.357 -301.958,408.644C-301.361,408.423 -300.587,408.372 -300.759,407.549C-300.879,406.973 -301.256,406.193 -301.724,405.999C-302.962,405.484 -304.296,404.466 -305.637,405.872C-306.155,406.415 -306.731,406.498 -307.261,405.926C-308.011,405.117 -308.715,404.265 -309.571,403.28M-269.372,413.245C-268.316,413.634 -267.91,413.856 -267.479,413.933C-255.823,415.994 -244.547,419.489 -233.183,422.713C-217.043,427.292 -201.41,433.424 -185.229,437.877C-177.393,440.034 -169.776,442.987 -162.052,445.553C-149.638,449.677 -136.974,452.993 -124.657,457.45C-114.602,461.088 -104.359,464.208 -94.229,467.643C-85.165,470.716 -76.142,473.91 -67.098,477.041C-60.462,479.338 -53.967,482.061 -47.133,483.76C-36.426,486.423 -25.914,489.701 -15.598,493.612C-11.724,495.081 -7.872,496.611 -3.979,498.029C-3.402,498.239 -2.583,498.832 -1.844,497.728C-3.326,496.411 -5.27,496.131 -6.979,495.394C-14.299,492.239 -21.629,489.111 -29.234,486.679C-34.859,484.88 -40.438,482.935 -46.074,481.175C-54.621,478.506 -62.795,474.838 -71.245,471.924C-76.828,469.999 -82.345,467.927 -87.737,465.534C-97.668,461.125 -108.055,457.934 -118.183,454.05C-130.551,449.308 -142.96,444.682 -155.575,440.611C-165.293,437.475 -174.942,434.097 -184.885,431.75C-196.542,428.999 -208.196,426.291 -219.708,422.943C-235.215,418.433 -251.015,415.169 -266.976,412.692C-267.632,412.59 -268.232,412.587 -269.372,413.245M-706.206,266.773C-704.622,268.461 -702.628,269.579 -700.614,270.489C-695.389,272.851 -691.032,276.79 -685.549,278.666C-684.971,278.864 -684.543,279.466 -683.979,279.749C-682.413,280.535 -680.825,281.28 -679.222,281.987C-677.62,282.692 -675.95,283.249 -674.378,284.012C-577.626,330.978 -480.881,377.958 -384.135,424.936C-382.985,425.495 -381.843,426.074 -380.67,426.58C-377.59,427.908 -374.428,427.178 -371.288,426.885C-371.149,426.872 -371.031,426.7 -370.893,426.623C-370.325,426.306 -370.295,425.22 -370.922,425.092C-372.448,424.779 -373.421,424.356 -373.358,422.417C-373.304,420.717 -374.608,419.541 -376.074,418.729C-377.052,418.187 -378.062,417.701 -379.068,417.212C-443.906,385.742 -508.746,354.277 -573.582,322.804C-607.941,306.125 -642.288,289.424 -676.656,272.763C-678.687,271.778 -680.566,270.65 -682.3,269.192C-683.366,268.295 -684,267.358 -684.05,265.976C-684.137,263.579 -684.32,261.184 -684.356,258.787C-684.368,258.024 -684.193,257.179 -683.847,256.502C-680.802,250.535 -677.917,244.47 -674.558,238.682C-670.32,231.379 -665.666,224.318 -661.219,217.136C-656.602,209.679 -652.043,202.217 -646.775,195.153C-640.395,186.598 -634.71,177.521 -628.822,168.605C-623.631,160.744 -618.577,152.793 -613.458,144.884C-612.504,143.411 -611.562,141.929 -610.561,140.488C-606.46,134.586 -603.263,128.101 -598.85,122.401C-597.677,120.887 -596.396,119.416 -595.475,117.754C-592.444,112.291 -588.726,107.298 -585.186,102.178C-581.551,96.923 -577.824,91.711 -574.535,86.242C-569.921,78.568 -564.66,71.325 -559.778,63.837C-556.309,58.516 -552.68,53.232 -548.815,48.144C-543.795,41.534 -539.021,34.736 -533.961,28.158C-530.165,23.223 -526.418,18.261 -522.913,13.115C-521.655,11.268 -520.401,9.405 -518.991,7.675C-511.829,-1.112 -505.605,-10.577 -499.063,-19.812C-496.661,-23.203 -494.3,-26.624 -491.91,-30.024C-488.328,-35.118 -484.967,-40.32 -482.395,-46.039C-479.78,-51.849 -477.566,-57.848 -474.35,-63.395C-473.732,-64.46 -473.209,-65.654 -472.646,-66.791C-472.329,-67.429 -472.456,-68.078 -473.045,-68.475C-476.427,-70.752 -480.14,-72.082 -484.231,-72.367C-485.683,-72.468 -486.638,-71.833 -487.468,-70.739C-492.971,-63.49 -498.62,-56.349 -503.976,-48.993C-509.707,-41.125 -515.197,-33.08 -520.734,-25.071C-524.368,-19.815 -527.869,-14.466 -531.483,-9.195C-536.358,-2.084 -541.295,4.984 -546.187,12.084C-551.076,19.18 -555.911,26.314 -560.829,33.391C-565.203,39.684 -569.734,45.869 -574.055,52.197C-578.917,59.316 -583.605,66.554 -588.4,73.718C-595.328,84.068 -602.284,94.399 -609.229,104.738C-613.767,111.496 -618.24,118.299 -622.859,125.001C-629.476,134.602 -636.176,144.146 -642.89,153.68C-646.016,158.119 -649.032,162.664 -652.488,166.837C-662.286,178.666 -670.834,191.382 -679.366,204.11C-683.278,209.947 -686.756,216.08 -690.745,221.861C-696.733,230.542 -702.037,239.652 -707.848,248.441C-709.349,250.713 -710.462,253.178 -711.395,255.75C-712.058,257.575 -712.049,259.196 -710.906,260.729C-709.38,262.774 -707.776,264.761 -706.206,266.773M-304.5,400.654C-302.83,400.094 -302.253,399.882 -301.665,399.706C-293.646,397.311 -285.437,396.102 -277.081,396.164C-268.144,396.229 -259.229,396.404 -250.326,397.679C-238.932,399.31 -227.57,401.05 -216.331,403.528C-203.382,406.383 -190.467,409.392 -177.503,412.175C-169.837,413.821 -162.252,415.708 -154.822,418.215C-150.886,419.543 -146.956,420.892 -142.991,422.13C-131.101,425.844 -119.173,429.439 -107.304,433.22C-100.916,435.255 -94.685,437.794 -88.269,439.726C-71.28,444.839 -54.584,450.777 -38.09,457.279C-24.702,462.557 -11.105,467.169 2.714,471.178C8.19,472.767 13.57,473.754 19.167,472.089C19.469,471.999 19.802,471.98 20.119,471.987C22.62,472.046 23.905,470.643 24.499,468.384C24.661,467.766 24.875,467.162 25.03,466.542C27.156,458.029 29.316,449.524 31.389,440.998C34.218,429.362 36.979,417.709 39.771,406.064C40.849,401.57 42.092,397.109 42.984,392.579C46.224,376.133 50.09,359.814 52.907,343.283C54.004,336.838 55.294,330.426 56.5,323.999C56.941,321.647 57.28,319.268 57.857,316.949C61.204,303.479 64.6,290.023 67.994,276.565C70.96,264.804 73.895,253.035 76.944,241.295C78.705,234.519 80.714,227.808 82.523,221.043C84.54,213.503 86.825,206.043 88.688,198.453C90.738,190.106 92.659,181.688 95.919,173.676C97.611,169.518 98.593,165.134 99.458,160.756C101.624,149.796 102.985,138.684 105.673,127.821C105.75,127.512 105.792,127.193 105.837,126.877C105.934,126.197 105.792,125.607 105.097,125.318C103.919,124.826 102.744,124.318 101.54,123.897C96.718,122.214 91.859,120.633 87.063,118.881C78.965,115.922 70.912,112.84 62.824,109.852C58.933,108.413 54.986,107.123 51.1,105.67C43.329,102.765 35.658,99.581 27.585,97.537C24.646,96.793 21.757,95.845 18.86,94.946C10.781,92.439 2.703,89.951 -5.568,88.12C-12.89,86.498 -20.203,84.825 -27.472,82.986C-33.04,81.578 -38.515,79.807 -44.063,78.321C-50.856,76.503 -57.784,75.293 -64.665,73.865C-74.828,71.756 -85.002,69.852 -95.337,68.829C-104.438,67.928 -113.536,68.047 -122.606,68.997C-130.388,69.811 -138.166,70.719 -145.83,72.41C-150.623,73.468 -155.458,74.334 -160.294,75.291C-160.426,78.96 -161.329,82.182 -162.444,85.36C-163.343,87.922 -164.143,90.52 -165.065,93.074C-168.212,101.783 -171.375,110.498 -175.633,118.736C-177.839,123.004 -179.763,127.372 -181.598,131.802C-185.753,141.832 -189.733,151.949 -194.326,161.777C-202.37,178.994 -210.775,196.042 -219.121,213.117C-223.815,222.724 -228.466,232.363 -233.546,241.767C-239.465,252.725 -244.231,264.272 -250.682,274.95C-251.01,275.494 -251.309,276.063 -251.555,276.649C-258.817,293.86 -266.232,311.01 -272.6,328.584C-274.61,334.134 -276.703,339.653 -278.771,345.182C-279.665,347.575 -280.589,349.956 -281.5,352.343C-284.232,359.501 -286.419,366.861 -289.589,373.858C-290.772,376.468 -291.897,379.103 -292.364,381.991C-292.752,384.389 -293.977,386.49 -295.43,388.424C-296.009,389.196 -296.72,389.145 -297.487,388.58C-297.85,388.313 -298.339,388.217 -298.99,387.957C-299.717,392.349 -301.791,396.09 -304.5,400.654M-308.255,386.472C-306.756,384.908 -305.781,383.199 -304.324,382.508C-300.765,380.822 -299.051,378.145 -298.61,374.389C-298.539,373.785 -298.103,373.228 -297.86,372.638C-295.496,366.889 -293.065,361.169 -291.195,355.227C-290.191,352.035 -289.037,348.887 -287.857,345.754C-283.982,335.468 -280.072,325.194 -276.159,314.921C-274.566,310.742 -273.003,306.548 -271.294,302.416C-268.734,296.223 -266.078,290.07 -263.422,283.918C-261.651,279.816 -260.038,275.624 -257.949,271.688C-254.439,265.071 -250.885,258.481 -247.62,251.738C-244.208,244.694 -240.747,237.674 -237.291,230.652C-236.727,229.505 -236.061,228.41 -235.466,227.277C-232.58,221.776 -229.614,216.314 -226.844,210.755C-223.431,203.903 -220.225,196.947 -216.848,190.076C-214.808,185.924 -212.396,181.944 -210.535,177.718C-207.126,169.98 -203.099,162.54 -199.877,154.709C-196.661,146.889 -192.88,139.301 -189.69,131.472C-186.914,124.657 -183.798,118.029 -180.341,111.548C-179.814,110.562 -179.247,109.59 -178.821,108.561C-176.929,103.996 -175.102,99.405 -173.214,94.839C-171.092,89.708 -169.048,84.54 -166.738,79.493C-165.366,76.495 -163.867,73.539 -162.317,70.618C-162.111,70.231 -161.844,69.571 -162.016,69.336C-164.357,66.116 -164.42,62.084 -165.902,58.562C-166.452,57.256 -166.861,55.812 -166.944,54.408C-167.08,52.098 -167.909,50.084 -168.91,48.071C-170.117,45.642 -170.9,42.919 -172.49,40.788C-174.177,38.527 -176.596,36.812 -178.693,34.857C-179.161,34.42 -179.616,33.97 -180.085,33.535C-184.894,29.08 -189.953,24.935 -195.408,21.287C-197.927,19.602 -200.461,17.941 -202.979,16.255C-213.196,9.416 -223.504,2.724 -234.156,-3.425C-234.847,-3.824 -235.568,-4.19 -236.197,-4.673C-243.957,-10.623 -252.456,-15.408 -260.879,-20.306C-263.636,-21.909 -266.651,-23.079 -269.353,-24.762C-274.243,-27.806 -279.339,-30.431 -284.503,-32.959C-289.522,-35.415 -294.509,-37.946 -299.421,-40.608C-302.381,-42.212 -305.393,-43.662 -308.567,-44.753C-312.202,-46.003 -315.629,-47.702 -319.089,-49.347C-323.12,-51.262 -326.922,-53.651 -331.224,-55.018C-333.184,-55.641 -335.034,-56.624 -336.905,-57.506C-344.42,-61.052 -351.574,-65.276 -358.843,-69.284C-360.656,-70.284 -362.417,-71.371 -363.996,-72.765C-366.039,-74.567 -368.429,-75.869 -370.827,-77.172C-375.056,-79.47 -379.538,-81.146 -383.972,-82.96C-386.62,-84.043 -386.596,-84.168 -388.063,-81.594C-391.935,-74.801 -395.826,-68.019 -399.63,-61.188C-402.038,-56.863 -404.052,-52.3 -406.7,-48.134C-409.611,-43.552 -412.397,-38.899 -415.255,-34.288C-416.936,-31.577 -418.705,-28.918 -420.496,-26.278C-429.547,-12.935 -438.555,0.438 -447.715,13.706C-451.341,18.958 -455.311,23.972 -459.141,29.082C-463.065,34.317 -467.057,39.5 -470.928,44.773C-474.518,49.663 -477.892,54.712 -481.53,59.564C-490.343,71.321 -498.69,83.389 -506.529,95.817C-511.981,104.46 -517.56,113.025 -523.206,121.542C-529.643,131.255 -536.21,140.881 -542.739,150.533C-544.35,152.914 -546.029,155.249 -547.682,157.603C-551.72,163.35 -556.047,168.917 -559.738,174.879C-566.206,185.325 -572.296,196.004 -578.517,206.601C-580.726,210.363 -581.822,214.544 -582.91,218.722C-583.157,219.668 -582.77,220.223 -581.937,220.591C-581.206,220.914 -580.499,221.291 -579.763,221.6C-568.105,226.484 -556.825,232.078 -546.263,239.077C-543.345,241.011 -540.303,242.804 -537.161,244.343C-532.767,246.494 -528.286,248.304 -524.219,251.233C-519.85,254.38 -514.906,256.832 -509.985,259.09C-500.818,263.298 -492.045,268.183 -483.467,273.456C-477.343,277.222 -471.628,281.591 -465.65,285.561C-453.018,293.946 -440.295,302.196 -427.362,310.121C-417.15,316.379 -406.888,322.536 -396.384,328.295C-388.131,332.82 -379.873,337.351 -371.796,342.179C-365.634,345.862 -359.659,349.882 -353.767,353.99C-344.083,360.741 -333.698,366.46 -324.508,373.934C-319.312,378.16 -313.487,381.559 -308.255,386.472M-525.255,271.959C-526.825,272.54 -527.925,271.367 -529.182,270.86C-536.713,267.826 -544.391,265.089 -551.698,261.584C-559.755,257.72 -567.479,253.159 -575.322,248.853C-579.244,246.702 -583.121,244.462 -587.405,243.09C-591.359,241.822 -595.292,240.433 -599.327,239.496C-601.392,239.017 -603.403,237.307 -605.762,238.625C-605.9,238.702 -606.346,238.394 -606.537,238.169C-606.843,237.81 -607.011,237.332 -607.318,236.973C-608.005,236.164 -608.339,234.617 -609.653,234.928C-610.774,235.193 -610.92,236.647 -611.341,237.649C-612.392,240.148 -613.27,242.724 -614.411,245.179C-616.608,249.905 -616.848,248.898 -619.382,245.4C-620.818,243.418 -621.635,241.58 -620.03,239.311C-619.588,238.685 -619.522,237.804 -619.221,237.066C-616.57,230.572 -613.862,224.091 -610.403,217.984C-607.575,212.991 -604.282,208.262 -601.457,203.268C-597.519,196.307 -593.335,189.509 -588.912,182.851C-585.468,177.666 -582.684,172.069 -579.014,167.02C-577.705,165.222 -576.474,163.343 -575.423,161.385C-573.454,157.714 -571.345,154.119 -568.845,150.809C-566.132,147.216 -564.157,143.209 -561.812,139.413C-559.797,136.153 -557.708,132.94 -555.654,129.706C-554.285,127.547 -552.712,125.486 -551.615,123.197C-550.715,121.319 -549.778,119.502 -548.656,117.749C-546.079,113.725 -543.639,109.613 -541.067,105.585C-536.001,97.653 -530.943,89.715 -525.763,81.858C-522.863,77.46 -519.588,73.308 -516.717,68.892C-508.443,56.166 -499.248,44.083 -490.802,31.483C-488.831,28.542 -486.305,26.063 -484.38,23.142C-480.33,16.993 -475.663,11.319 -471.198,5.491C-465.081,-2.494 -458.765,-10.329 -452.745,-18.384C-445.096,-28.619 -437.5,-38.889 -429.614,-48.944C-427.261,-51.944 -424.85,-54.892 -422.472,-57.869C-421.295,-59.342 -419.759,-60.619 -419.384,-62.871C-421.336,-63.386 -423.298,-63.978 -425.295,-64.401C-426.378,-64.631 -427.529,-64.699 -428.633,-64.616C-429.897,-64.522 -431.192,-64.325 -432.383,-63.911C-434.645,-63.124 -436.862,-62.199 -439.06,-61.241C-441.149,-60.331 -442.962,-58.959 -444.168,-57.029C-445.836,-54.358 -448.183,-52.51 -450.859,-51.035C-452.164,-50.315 -453.191,-49.403 -453.968,-48.147C-458.334,-41.089 -462.654,-34.002 -467.106,-26.999C-471.132,-20.665 -475.081,-14.262 -479.465,-8.179C-486.846,2.062 -493.29,12.917 -500.537,23.24C-504.485,28.862 -508.268,34.602 -512.272,40.184C-516.741,46.415 -521.476,52.457 -525.919,58.707C-532.765,68.336 -539.003,78.378 -545.803,88.047C-552.138,97.055 -557.849,106.498 -563.997,115.641C-571.93,127.44 -579.551,139.433 -586.926,151.586C-589.992,156.639 -593.033,161.717 -596.355,166.601C-605.785,180.464 -614.858,194.558 -624.008,208.604C-628.538,215.56 -633.116,222.509 -638.099,229.141C-645.292,238.714 -652.398,248.34 -659.107,258.257C-660.263,259.966 -661.2,261.831 -662.149,263.669C-662.616,264.572 -662.144,265.099 -661.188,265.356C-656.871,266.518 -652.562,267.713 -648.253,268.907C-643.319,270.275 -638.435,271.83 -633.789,273.979C-627.554,276.864 -621.232,279.523 -614.801,281.934C-613.756,282.326 -612.703,282.71 -611.692,283.181C-598.806,289.174 -585.706,294.682 -572.915,300.903C-562.297,306.068 -551.274,310.404 -540.422,315.085C-531.618,318.882 -522.707,322.446 -514.011,326.475C-501.547,332.251 -489.241,338.37 -476.855,344.315C-468.359,348.393 -460.117,352.969 -451.694,357.175C-439.395,363.316 -427.686,370.525 -415.412,376.707C-409.289,379.791 -403.527,383.59 -397.606,387.072C-389.224,392.001 -381.17,397.485 -372.416,401.778C-366.098,404.876 -359.662,407.652 -352.99,409.916C-349.439,411.121 -346.055,410.93 -342.757,409.439C-340.656,408.49 -338.467,408.232 -336.259,407.926C-332.566,407.413 -328.931,408.012 -325.314,408.643C-323.242,409.005 -321.24,408.97 -319.237,408.471C-319.36,406.484 -320.609,405.471 -321.738,404.394C-325.672,400.637 -329.57,396.842 -333.567,393.154C-340.843,386.44 -348.174,379.786 -355.495,373.119C-361.402,367.739 -367.305,362.33 -374.036,357.982C-379.798,354.26 -385.368,350.254 -391.068,346.445C-397.297,342.283 -403.61,338.223 -409.651,333.736C-422.767,323.994 -437.135,316.244 -451.757,309.015C-464.933,302.502 -478.348,296.52 -492.098,291.28C-504.182,286.674 -515.979,281.33 -528.179,277.007C-536.008,274.233 -543.808,271.366 -551.693,268.757C-559.715,266.102 -567.75,263.489 -575.963,261.423C-586.516,258.769 -597.089,256.31 -607.94,255.215C-609.38,255.069 -610.793,255.125 -612.226,255.142C-613.357,255.156 -613.544,253.896 -613.612,252.934C-613.679,252 -613.162,251.455 -612.205,251.388C-611.888,251.366 -611.567,251.338 -611.253,251.369C-605.688,251.912 -600.088,252.223 -594.568,253.062C-580.788,255.158 -567.373,258.775 -554.202,263.325C-545.608,266.294 -536.982,269.17 -528.393,272.155C-527.248,272.552 -526.276,272.643 -525.272,271.956C-524.797,272.561 -524.325,273.169 -523.835,273.762C-523.807,273.795 -523.582,273.726 -523.515,273.648C-523.446,273.566 -523.401,273.341 -523.444,273.307C-524.038,272.845 -524.649,272.405 -525.255,271.959M-276.669,410.622C-276.306,411.728 -275.66,412.495 -274.386,412.417C-274.127,412.402 -273.88,412.208 -273.628,412.096C-273.769,411.902 -273.871,411.603 -274.058,411.533C-274.898,411.219 -275.762,410.971 -276.601,410.748C-276.797,410.941 -277,411.129 -277.185,411.333C-277.237,411.392 -277.28,411.552 -277.251,411.577C-276.949,411.834 -276.709,411.773 -276.647,411.399C-276.606,411.148 -276.659,410.882 -276.669,410.622M3.176,500.639C2.956,500.258 2.746,499.871 2.509,499.501C2.43,499.378 2.294,499.262 2.159,499.212C2.063,499.178 1.909,499.234 1.808,499.294C1.51,499.473 1.602,499.632 2.016,499.84C2.412,500.04 2.772,500.311 3.144,500.508C3.631,500.128 4.642,500.176 4.288,499.108C4.419,499.986 4.948,500.55 5.761,500.808C8.956,501.818 12.153,502.82 15.362,503.786C16.675,504.181 17.076,503.975 17.44,502.637C18.816,497.57 20.149,492.491 21.492,487.414C21.667,486.751 21.975,486.219 22.726,486.169C23.638,486.109 24.274,486.67 24.613,487.39C24.867,487.928 24.896,488.633 24.842,489.249C24.286,495.621 23.528,501.966 22.217,508.236C21.917,509.672 21.405,510.995 20.421,512.096C20.066,512.494 19.543,512.527 19.179,512.177C18.726,511.741 18.415,511.162 17.998,510.682C17.427,510.024 16.808,510.24 16.497,510.873C15.022,513.88 13.583,516.906 12.217,519.964C11.985,520.484 11.954,521.303 12.203,521.795C13.82,524.984 13.928,528.589 15.091,531.904C15.881,534.16 16.177,536.542 16.038,538.971C15.965,540.238 15.832,541.63 16.251,542.772C17.435,545.994 16.696,549.141 16.036,552.224C15.528,554.594 15.187,556.865 15.386,559.303C15.539,561.181 15.278,563.145 14.873,564.998C14.612,566.187 14.04,567.772 12.88,568.095C11.484,568.484 10.846,566.939 10.184,565.862C9.851,565.32 9.479,564.797 9.081,564.299C8.557,563.644 8.021,563.792 7.541,564.37C6.958,565.069 6.63,566.253 5.427,565.937C1.88,565.005 -1.719,564.19 -5.151,562.93C-10.091,561.115 -14.935,559.024 -19.761,556.917C-28.975,552.894 -38.146,548.772 -47.338,544.7C-55.948,540.886 -64.42,536.752 -73.326,533.631C-77.692,532.101 -82.064,530.585 -86.409,528.996C-95.558,525.65 -104.659,522.172 -113.839,518.918C-120.764,516.463 -127.819,514.38 -134.749,511.938C-142.874,509.076 -151.086,506.474 -159.197,503.557C-172.262,498.859 -185.479,494.58 -198.672,490.247C-212.044,485.855 -224.921,480.195 -237.907,474.847C-250.003,469.866 -261.769,464.082 -273.675,458.642C-276.742,457.24 -279.432,455.216 -282.216,453.353C-282.426,453.212 -282.495,452.862 -282.629,452.609C-282.228,452.41 -281.821,452.04 -281.426,452.052C-280.806,452.071 -280.176,452.3 -279.581,452.523C-274.943,454.26 -270.292,455.961 -265.687,457.778C-254.097,462.349 -242.804,467.622 -231.198,472.174C-215.877,478.185 -200.587,484.243 -184.896,489.243C-176.979,491.765 -169.126,494.487 -161.253,497.143C-151.42,500.459 -141.6,503.812 -131.766,507.126C-125.566,509.215 -119.312,511.149 -113.152,513.349C-102.475,517.164 -91.864,521.164 -81.202,525.019C-76.852,526.592 -72.4,527.874 -68.156,529.753C-56.914,534.73 -45.592,539.53 -34.413,544.642C-26.131,548.43 -17.754,551.985 -9.261,555.237C-4.989,556.873 -0.571,558.502 4.195,558.024C5.274,557.916 6.054,558.216 6.598,559.157C6.757,559.43 6.961,559.69 7.191,559.906C8.306,560.953 9.454,560.809 9.678,559.43C10.444,554.695 11.881,550.143 13.134,545.537C13.292,544.955 13.202,544.239 13.029,543.644C12.257,540.99 12.172,538.291 12.353,535.565C12.438,534.269 12.123,533.045 11.822,531.792C11.376,529.932 11.014,528.035 10.841,526.132C10.695,524.523 10.583,522.937 9.789,521.504C9.082,520.228 9.349,519.053 9.989,517.872C11.205,515.627 12.451,513.398 13.616,511.128C14.606,509.198 14.412,508.791 12.183,508.127C10.195,507.535 8.171,507.068 6.173,506.511C-0.444,504.667 -6.832,502.183 -13.251,499.749C-22.66,496.184 -32.222,493.052 -42.062,490.809C-45.475,490.03 -48.823,488.887 -52.12,487.69C-67.429,482.131 -82.777,476.692 -98.249,471.601C-106.439,468.905 -114.625,466.188 -122.757,463.325C-131.048,460.405 -139.474,457.939 -147.886,455.414C-152.934,453.898 -158.042,452.551 -163.007,450.798C-173.09,447.239 -183.21,443.823 -193.472,440.792C-206.635,436.906 -219.478,432 -232.713,428.316C-239.175,426.518 -245.518,424.276 -252.002,422.569C-263.274,419.603 -274.609,416.88 -285.928,414.095C-287.84,413.625 -289.489,412.944 -290.81,411.334C-292.269,409.556 -294.742,409.417 -296.038,411.135C-297.385,412.918 -299.233,413.917 -301.073,414.662C-305.479,416.445 -306.937,420.203 -308.236,424.182C-308.325,424.456 -308.32,424.892 -308.159,425.093C-307.177,426.323 -306.209,427.582 -305.074,428.66C-304.722,428.995 -303.849,428.911 -303.245,428.816C-302.492,428.699 -302.321,428.017 -302.393,427.359C-302.651,424.982 -302.971,422.611 -303.215,420.233C-303.261,419.787 -303.22,419.148 -302.945,418.894C-302.43,418.416 -301.771,418.814 -301.225,419.061C-299.905,419.659 -299.529,420.936 -299.241,422.17C-298.407,425.749 -297.542,429.328 -296.902,432.944C-296.088,437.541 -294.779,441.957 -292.789,446.177C-292.381,447.041 -291.785,447.957 -291.789,448.845C-291.8,450.986 -290.848,452.436 -289.226,453.653C-288.914,453.887 -288.638,454.54 -288.735,454.892C-289.309,456.96 -292.173,458.16 -294.124,457.168C-295.795,456.318 -297.264,455.228 -299.419,455.536C-300.751,455.726 -302.02,453.478 -301.619,451.999C-301.425,451.283 -300.797,450.782 -301.386,449.888C-302.573,448.085 -303.606,446.18 -304.679,444.357C-305.694,444.833 -306.591,444.999 -307.095,445.536C-309.199,447.777 -311.472,446.739 -313.683,445.965C-315.054,445.485 -316.209,444.496 -317.046,443.327C-319.347,440.114 -322.709,439.44 -326.3,439.201C-333.776,438.702 -341.264,438.285 -348.461,435.893C-349.12,435.674 -349.864,435.714 -351.267,435.556C-350.143,436.261 -349.635,436.631 -349.083,436.918C-345.69,438.687 -342.232,440.339 -338.9,442.215C-332.214,445.98 -325.445,449.524 -318.187,452.109C-313.228,453.875 -308.368,455.921 -303.488,457.902C-302.318,458.377 -300.788,458.818 -300.226,459.755C-299.116,461.607 -297.287,462.131 -295.67,463.045C-292.89,464.616 -290.023,466.034 -287.203,467.535C-278.615,472.104 -270.144,476.89 -261.198,480.774C-252.845,484.401 -244.598,488.277 -236.031,491.39C-227.61,494.451 -219.473,498.173 -211.432,502.081C-202.497,506.422 -193.291,510.036 -183.812,512.937C-167.619,517.892 -151.423,522.871 -135.777,529.369C-117.63,536.905 -99.464,544.347 -80.933,550.916C-69.769,554.873 -58.499,558.328 -46.993,561.094C-39.386,562.922 -31.854,565.041 -24.461,567.637C-13.16,571.604 -1.986,575.955 9.608,579.04C12.384,579.778 15.18,580.462 18,580.993C19.388,581.253 20.856,581.179 22.281,581.109C23.009,581.074 23.387,580.53 22.901,579.794C22.499,579.184 22.413,578.63 23.085,578.2C25.103,576.909 27.171,575.693 29.157,574.355C30.75,573.282 32.289,572.09 33.169,570.311C33.661,569.317 33.807,568.099 34.46,567.252C35.201,566.292 36.136,565.518 36.711,564.373C39.575,558.671 42.082,552.849 43.976,546.731C46.146,539.721 48.462,532.74 51.099,525.894C54.207,517.823 56.104,509.412 58.444,501.136C60.521,493.794 61.64,486.187 63.399,478.748C66.042,467.57 68.88,456.439 71.623,445.285C74.786,432.417 76.848,419.303 80.495,406.536C82.727,398.722 84.266,390.709 86.54,382.909C89.353,373.257 91.827,363.521 94.016,353.727C96.064,344.559 97.961,335.35 99.656,326.101C100.809,319.806 101.593,313.469 102.541,307.153C104.553,293.742 105.696,280.206 109.6,267.103C112.238,258.245 114.338,249.226 117.24,240.437C118.849,235.564 119.775,230.55 120.194,225.439C120.331,223.774 120.201,223.456 118.617,223.054C114.901,222.109 111.18,221.171 107.43,220.377C104.832,219.827 102.583,218.881 101.045,216.579C100.669,216.017 100.411,215.105 99.151,215.325C98.644,219.858 97.909,224.426 97.665,229.02C97.136,238.951 94.668,248.576 93.325,258.374C93.174,259.473 92.781,260.541 92.475,261.616C91.818,263.918 90.906,266.176 90.522,268.521C89.329,275.821 86.679,282.699 84.547,289.72C81.811,298.733 78.947,307.695 76.831,316.892C75.106,324.39 74.19,332.01 73.184,339.592C72.156,347.335 72.1,355.205 71.586,363.018C71.261,367.964 70.661,372.87 69.664,377.74C68.125,385.249 66.76,392.792 65.348,400.327C64.052,407.235 63.771,414.306 61.981,421.14C61.375,423.453 60.962,425.821 60.531,428.176C59.237,435.248 57.904,442.312 55.98,449.244C53.931,456.628 51.524,463.909 49.951,471.429C48.938,476.271 47.77,481.095 46.37,485.838C45.012,490.439 43.8,495.068 42.687,499.729C42.129,502.06 41.499,504.376 40.813,506.672C39.849,509.894 39.19,513.166 38.6,516.479C37.479,522.766 36.258,529.052 34.675,535.235C32.337,544.361 29.644,553.396 27.108,562.472C26.635,564.164 26.441,565.991 25.661,567.523C24.925,568.967 24.744,571.397 22.692,571.382C21.105,571.371 20.345,569.445 19.537,568.073C18.979,567.125 18.295,566.3 18.701,565.002C20.271,559.975 21.762,554.923 23.242,549.869C24.673,544.981 26.279,540.13 27.407,535.171C29.319,526.77 31.09,518.337 32.715,509.867C34.306,501.574 36.821,493.449 39.146,485.311C40.154,481.784 41.099,478.251 41.92,474.68C43.636,467.213 45.167,459.701 47.574,452.407C48.373,449.985 49.212,447.556 49.732,445.067C52.183,433.352 54.963,421.681 56.778,409.864C58.305,399.92 60.269,390.076 62.057,380.19C63.393,372.801 64.656,365.41 65.106,357.89C65.688,348.176 66.118,338.466 67.683,328.808C69.215,319.349 70.936,309.966 73.586,300.759C74.424,297.851 75.09,294.879 76.125,292.043C78.803,284.696 81.222,277.268 83.059,269.673C84.107,265.343 84.861,260.937 86.458,256.762C87.732,253.429 87.333,249.834 88.305,246.447C89.006,244.005 89.398,241.463 89.772,238.942C90.688,232.784 91.27,226.578 92.628,220.484C92.998,218.828 93.526,217.123 92.956,215C91.824,216.729 91.575,218.47 91.134,220.105C89.307,226.888 87.55,233.688 85.758,240.48C84.332,245.888 82.682,251.247 81.501,256.707C77.99,272.949 74.024,289.082 69.955,305.188C66.901,317.276 64.324,329.449 62.147,341.72C60.669,350.053 58.972,358.347 57.316,366.647C56.472,370.879 55.38,375.063 54.616,379.308C52.263,392.365 49.192,405.262 46.084,418.15C42.378,433.523 38.596,448.878 34.799,464.229C33.688,468.725 32.653,473.261 30.686,477.487C30.093,478.76 29.4,480.173 28.339,480.974C27.703,481.454 26.267,480.806 25.188,480.791C24.236,480.778 23.246,480.805 22.335,481.048C18.711,482.017 15.114,481.978 11.5,481.039C11.241,480.972 10.914,481.164 10.515,481.26C10.622,485.773 9.239,490.055 8.161,494.39C7.731,496.118 6.714,497.582 5.658,498.981C5.456,499.249 4.797,499.17 4.359,499.3C3.779,499.582 3.124,499.797 3.176,500.639M-450.516,-62.984C-446.549,-67.658 -441.267,-69.152 -436.152,-70.921C-433.658,-71.784 -431.05,-71.326 -428.543,-70.966C-425.239,-70.493 -421.978,-69.705 -418.712,-68.989C-414.639,-68.096 -410.753,-66.644 -406.925,-65C-405.041,-64.19 -404.671,-64.351 -403.445,-66.196C-401.146,-69.656 -398.828,-73.094 -396.814,-76.748C-395.361,-79.384 -393.313,-81.688 -391.589,-84.181C-390.715,-85.444 -389.3,-86.411 -389.494,-88.286C-389.64,-89.696 -388.179,-89.373 -387.466,-89.812C-385.525,-91.004 -385.392,-90.984 -384.721,-88.83C-384.5,-88.124 -384.185,-87.758 -383.6,-87.522C-382.861,-87.225 -382.094,-86.996 -381.35,-86.71C-373.58,-83.731 -366.102,-80.299 -359.293,-75.33C-354.809,-72.057 -349.728,-69.552 -344.763,-66.997C-339.94,-64.515 -334.924,-62.408 -329.992,-60.14C-329.557,-59.939 -329.104,-59.778 -328.672,-59.571C-319.606,-55.204 -310.127,-51.689 -301.183,-47.144C-289.085,-40.997 -276.708,-35.394 -264.948,-28.544C-257.369,-24.128 -249.661,-19.927 -242.244,-15.231C-238.063,-12.584 -234.031,-9.691 -229.762,-7.198C-224.519,-4.136 -219.505,-0.73 -214.372,2.49C-208.828,5.967 -203.247,9.385 -197.771,12.972C-190.544,17.704 -183.505,22.665 -177.266,28.699C-174.978,30.912 -172.435,32.876 -169.906,34.82C-167.56,36.623 -165.904,38.734 -164.913,41.619C-163.726,45.074 -161.961,48.331 -160.455,51.677C-159.999,52.691 -159.216,53.71 -159.192,54.741C-159.088,59.182 -157.053,63.053 -155.885,67.332C-153.004,66.66 -150.194,66.111 -147.449,65.335C-144.054,64.375 -140.595,63.793 -137.115,63.346C-127.922,62.166 -118.729,60.998 -109.424,61.122C-101.729,61.225 -94.089,62.041 -86.507,63.138C-73.698,64.993 -60.963,67.348 -48.384,70.426C-42.024,71.982 -35.764,73.943 -29.409,75.525C-21.35,77.533 -13.238,79.33 -5.155,81.243C-2.67,81.832 -0.184,82.433 2.267,83.149C10.55,85.569 18.825,88.015 27.085,90.511C30.14,91.434 33.172,92.447 36.167,93.549C48.908,98.24 61.82,102.452 74.461,107.437C82.629,110.659 90.939,113.578 99.332,116.155C104.252,117.666 108.57,120.305 113.229,122.276C114.644,122.874 114.761,123.349 113.898,124.883C113.416,125.741 113.122,126.562 112.951,127.528C110.914,139.009 108.803,150.476 106.757,161.955C105.549,168.733 103.854,175.363 101.529,181.857C100.135,185.753 99.221,189.82 98.082,193.807C97.855,194.6 97.672,195.428 98.34,196.047C101.453,198.94 101.496,202.656 100.69,206.3C99.21,213.001 99.194,212.59 105.769,213.821C110.642,214.733 115.406,216.017 119.978,218.06C124.627,220.136 126.624,223.624 126.703,228.571C126.793,234.246 125.451,239.626 123.912,245.026C121.635,253.009 119.618,261.066 117.452,269.081C113.349,284.264 111.768,299.867 109.635,315.382C108.308,325.034 106.746,334.643 104.802,344.205C103.274,351.718 101.924,359.263 100.008,366.691C98.373,373.031 96.737,379.371 95.095,385.71C93.336,392.499 91.575,399.289 89.805,406.075C88.999,409.167 88.221,412.269 87.336,415.339C85.253,422.571 83.968,429.98 82.479,437.339C80.004,449.567 76.476,461.53 73.64,473.665C72.296,479.419 71.003,485.187 69.815,490.975C67.048,504.447 63.423,517.674 58.885,530.658C55.618,540.005 52.566,549.429 49.215,558.745C46.775,565.528 43.507,571.992 39.5,577.949C37.148,581.447 34.57,585.003 30.727,587.291C28.577,588.571 26.479,589.253 23.93,588.965C20.894,588.621 17.936,588.011 15.014,587.184C4.404,584.181 -6.032,580.668 -16.361,576.8C-23.232,574.227 -30.274,572.172 -37.405,570.359C-50.384,567.061 -63.331,563.687 -75.921,558.949C-87.423,554.62 -99.061,550.641 -110.445,545.992C-118.576,542.672 -126.656,539.226 -134.787,535.902C-145.146,531.668 -155.851,528.409 -166.428,524.791C-176.547,521.33 -186.911,518.587 -196.828,514.532C-199.779,513.325 -202.701,512.033 -205.572,510.648C-218.663,504.336 -232.106,498.855 -245.554,493.368C-253.687,490.05 -261.782,486.58 -269.647,482.681C-277.646,478.715 -285.341,474.137 -293.174,469.834C-294.993,468.834 -296.803,467.812 -298.667,466.901C-299.973,466.262 -301.23,465.617 -302.169,464.457C-302.99,463.443 -304,462.602 -305.289,462.333C-310.196,461.311 -314.38,458.436 -319.104,456.987C-327.769,454.329 -335.093,449.108 -342.88,444.767C-344.414,443.912 -345.872,442.857 -347.497,442.24C-352.771,440.235 -357.585,437.432 -362.133,434.146C-363.198,433.377 -364.029,432.964 -364.766,434.431C-365.352,435.599 -366.396,435.742 -367.576,435.854C-370.269,436.11 -372.585,434.978 -374.938,434.019C-379.816,432.029 -384.605,429.807 -389.531,427.946C-396.997,425.124 -404.411,422.189 -411.667,418.865C-415.581,417.072 -419.562,415.38 -423.319,413.293C-431.428,408.79 -439.892,405.079 -448.41,401.458C-457.379,397.647 -466.131,393.414 -474.443,388.285C-481.78,383.757 -489.371,379.672 -496.98,375.613C-507.4,370.056 -517.846,364.559 -528.5,359.459C-540.451,353.739 -552.5,348.206 -564.278,342.15C-573.672,337.32 -583.585,333.703 -593.046,329.084C-605.827,322.846 -619.035,317.573 -631.894,311.518C-637.956,308.663 -644.213,306.21 -650.214,303.238C-660.375,298.207 -670.408,292.915 -680.483,287.71C-681.615,287.125 -682.619,286.266 -683.782,285.772C-685.454,285.063 -686.754,283.17 -688.955,284.022C-690.359,283.27 -691.822,282.61 -693.155,281.748C-696.781,279.402 -700.491,277.208 -704.4,275.374C-706.937,274.184 -708.924,272.318 -710.631,270.215C-713.046,267.241 -715.283,264.117 -717.483,260.978C-718.298,259.814 -718.842,258.448 -719.422,257.135C-720.157,255.47 -720.15,253.847 -719.499,252.052C-718.134,248.284 -716.568,244.656 -714.359,241.288C-710.773,235.817 -707.024,230.453 -703.864,224.701C-702.257,221.777 -700.354,218.977 -698.281,216.361C-696.677,214.338 -695.37,212.17 -694.047,209.986C-689.667,202.757 -685.179,195.603 -680.232,188.738C-676.495,183.552 -673.03,178.169 -669.324,172.959C-666.642,169.189 -663.88,165.463 -660.948,161.887C-656.189,156.082 -651.584,150.183 -647.499,143.872C-645.159,140.256 -642.44,136.889 -640.012,133.327C-631.649,121.059 -623.398,108.713 -614.985,96.479C-609.737,88.847 -604.561,81.175 -599.567,73.372C-596.646,68.808 -593.16,64.61 -590.128,60.113C-586.918,55.353 -583.958,50.424 -580.861,45.587C-578.967,42.627 -576.95,39.764 -574.765,36.997C-572.297,33.871 -570.162,30.481 -567.903,27.191C-561.849,18.373 -555.822,9.535 -549.751,0.728C-545.403,-5.578 -540.958,-11.817 -536.633,-18.139C-531.689,-25.364 -526.876,-32.68 -521.92,-39.897C-516.044,-48.453 -509.952,-56.848 -503.461,-64.959C-499.97,-69.321 -496.761,-73.92 -493.611,-78.54C-492.372,-80.357 -490.934,-81.084 -488.828,-80.986C-486.553,-80.88 -484.378,-80.323 -482.313,-79.486C-478.173,-77.811 -474.037,-76.138 -470.151,-73.867C-466.988,-72.019 -463.653,-70.441 -460.308,-68.937C-456.956,-67.429 -453.635,-65.919 -450.516,-62.984" style="fill:rgb(128,57,141);fill-rule:nonzero;"/>
        </g>
    </g>
</svg>
